<svg xmlns="http://www.w3.org/2000/svg" viewBox="0 0 296.27 238.37"><defs><style>.cls-1{fill:#368add;}.cls-2{opacity:0.1;}.cls-3{fill:#fff;}.cls-4{fill:#3f3d56;}.cls-5{fill:#2f2e41;}.cls-6{fill:#1d1d6b;}.cls-7{fill:#ccc;}.cls-8{font-size:23.82px;font-family:Lato-Regular, Lato;}</style></defs><g id="Capa_2" data-name="Capa 2"><g id="Capa_1-2" data-name="Capa 1"><path class="cls-1" d="M188.38,40.46a269.84,269.84,0,0,0-41.86-3.08A275.52,275.52,0,0,0,107.9,40c0-.18,0-.36,0-.54a40.24,40.24,0,0,1,80.46.49C188.37,40.1,188.38,40.28,188.38,40.46Z"/><g class="cls-2"><path class="cls-3" d="M153.42.37a40.24,40.24,0,0,0-45.28,34.5,39,39,0,0,0-.35,4.18c0,.18,0,.36,0,.54q5.25-.75,10.85-1.29A40.23,40.23,0,0,1,153.42.37Z"/></g><path class="cls-4" d="M206,43.65a162.57,162.57,0,0,0-17.61-3.73A255.82,255.82,0,0,0,159,37.09c-4.09-.16-8.27-.25-12.48-.25-3.35,0-6.66.06-9.94.16a264.77,264.77,0,0,0-28.67,2.43,168.63,168.63,0,0,0-20.86,4.22c-16,4.43-24.8,10.35-24.8,16.69S71.06,72.6,87.05,77c11.25,3.11,25.11,5.23,40.22,6.2,6.24.41,12.68.61,19.25.61s13-.2,19.3-.61a212.19,212.19,0,0,0,37.12-5.4l.17,0,2.12-.56L206,77h0l.71-.2,1.39-.41h.06l1.17-.36.94-.3.68-.21.47-.16.64-.22.27-.09.59-.21.64-.23.52-.19.44-.17c.4-.14.78-.3,1.17-.45l.57-.23.56-.23.89-.38.42-.19.32-.14.22-.11.81-.38c1-.48,2-1,2.84-1.49,5.52-3.16,8.44-6.67,8.44-10.31C230.78,54,222,48.08,206,43.65Zm-.15,32.85c-11.26,3.12-25.16,5.24-40.31,6.2-6.16.39-12.53.59-19,.59s-12.81-.2-19-.59c-15.17-1-29.1-3.08-40.37-6.2C71.46,72.15,62.79,66.41,62.79,60.34a6.54,6.54,0,0,1,.2-1.59c1.38-5.48,9.85-10.61,24.21-14.58A169.42,169.42,0,0,1,107.9,40a262.67,262.67,0,0,1,28.84-2.43q4.83-.16,9.78-.16,6.24,0,12.32.25a254.52,254.52,0,0,1,29.54,2.83,164.51,164.51,0,0,1,17.45,3.71c14.36,4,22.83,9.1,24.21,14.57a6.62,6.62,0,0,1,.2,1.6c0,6.07-8.67,11.81-24.41,16.16Z"/><path class="cls-4" d="M230.62,60.58c0,3.61-3,7-8.28,10.07-.88.51-1.83,1-2.84,1.49l-.81.38-.22.11-.32.14-.42.19-.89.38-.56.23-.57.23c-.39.15-.77.31-1.17.45l-.44.17-.52.19-.64.23-.59.21-.27.09-.64.22-.47.16-.68.21-.94.3-1.17.36h-.06l-1.39.41L206,77h0l-.75.2-2.12.56-.17,0a213.34,213.34,0,0,1-37.13,5.38c-6.16.4-12.58.61-19.18.61s-13.13-.21-19.34-.62C90.22,80.77,62.64,71.57,62.64,60.58a6.58,6.58,0,0,1,.3-2l.05.14c3.86,10.12,31.21,18.3,66.69,20.3,5.44.3,11.07.46,16.84.46S158,79.35,163.41,79c35.46-2,62.78-10.18,66.63-20.3.06-.16.12-.32.17-.48A6.79,6.79,0,0,1,230.62,60.58Z"/><path class="cls-4" d="M87,57.68c-4.49,0-9.27-1-9.27-2.76s4.78-2.76,9.27-2.76,9.27,1,9.27,2.76S91.5,57.68,87,57.68Zm0-5c-5.15,0-8.73,1.17-8.73,2.22s3.58,2.22,8.73,2.22,8.73-1.17,8.73-2.22S92.16,52.7,87,52.7Z"/><path class="cls-4" d="M106.18,70.37c-4.49,0-9.27-1-9.27-2.76s4.78-2.76,9.27-2.76,9.28,1,9.28,2.76S110.68,70.37,106.18,70.37Zm0-5c-5.14,0-8.73,1.17-8.73,2.22s3.59,2.22,8.73,2.22,8.74-1.17,8.74-2.22S111.33,65.39,106.18,65.39Z"/><path class="cls-4" d="M205.84,57.68c-4.49,0-9.27-1-9.27-2.76s4.78-2.76,9.27-2.76,9.27,1,9.27,2.76S210.34,57.68,205.84,57.68Zm0-5c-5.14,0-8.73,1.17-8.73,2.22s3.59,2.22,8.73,2.22,8.73-1.17,8.73-2.22S211,52.7,205.84,52.7Z"/><path class="cls-4" d="M186.67,70.37c-4.5,0-9.28-1-9.28-2.76s4.78-2.76,9.28-2.76,9.27,1,9.27,2.76S191.16,70.37,186.67,70.37Zm0-5c-5.15,0-8.74,1.17-8.74,2.22s3.59,2.22,8.74,2.22,8.73-1.17,8.73-2.22S191.81,65.39,186.67,65.39Z"/><path class="cls-4" d="M146.43,76.31c-4.5,0-9.28-1-9.28-2.76s4.78-2.76,9.28-2.76,9.27,1,9.27,2.76S150.92,76.31,146.43,76.31Zm0-5c-5.15,0-8.74,1.17-8.74,2.22s3.59,2.22,8.74,2.22,8.73-1.17,8.73-2.22S151.57,71.33,146.43,71.33Z"/><circle class="cls-5" cx="153.26" cy="121.73" r="11.35"/><rect class="cls-5" x="143.87" y="130.38" width="6.18" height="3.45" transform="translate(-43.6 79.79) rotate(-26.6)"/><ellipse class="cls-5" cx="143.3" cy="133.14" rx="1.08" ry="2.87" transform="translate(-46.73 179.48) rotate(-56.6)"/><rect class="cls-5" x="157.84" y="129.02" width="3.45" height="6.18" transform="translate(-30.01 215.63) rotate(-63.4)"/><ellipse class="cls-5" cx="163.22" cy="133.14" rx="2.87" ry="1.08" transform="translate(-46.33 111.84) rotate(-33.4)"/><circle class="cls-3" cx="152.47" cy="118.95" r="3.88"/><ellipse class="cls-4" cx="152.49" cy="117.29" rx="1.29" ry="1.3" transform="translate(-38.27 142.18) rotate(-45)"/><path class="cls-6" d="M162.21,109.38c.17-4.2-3.45-7.75-8.08-7.94s-8.54,3.06-8.71,7.26,3.05,5.16,7.69,5.35S162,113.58,162.21,109.38Z"/><ellipse class="cls-5" cx="165.06" cy="123.36" rx="1.78" ry="5.67" transform="translate(-40.54 137.27) rotate(-40.65)"/><ellipse class="cls-5" cx="141.5" cy="123.36" rx="5.67" ry="1.78" transform="translate(-44.27 150.37) rotate(-49.35)"/><path class="cls-3" d="M156.38,126.2a2.59,2.59,0,1,1-5.09.93h0c-.25-1.4.83-1.9,2.24-2.16S156.12,124.79,156.38,126.2Z"/><path class="cls-7" d="M134.09,133.8a.54.54,0,0,1-.54-.54V101.39a.54.54,0,0,1,1.08,0v31.87A.54.54,0,0,1,134.09,133.8Z"/><path class="cls-7" d="M126,162.42a.54.54,0,0,1-.54-.54V138.66a.54.54,0,0,1,1.08,0v23.22A.54.54,0,0,1,126,162.42Z"/><path class="cls-7" d="M146.79,143.25a.54.54,0,0,1-.54-.54V110.84a.54.54,0,0,1,.54-.54.54.54,0,0,1,.54.54v31.87A.54.54,0,0,1,146.79,143.25Z"/><path class="cls-7" d="M139,166.21a.54.54,0,0,1-.54-.54v-13a.54.54,0,1,1,1.08,0v13A.54.54,0,0,1,139,166.21Z"/><path class="cls-7" d="M150,99.77a.54.54,0,0,1-.54-.54v-13a.54.54,0,0,1,.54-.54.55.55,0,0,1,.54.54v13A.54.54,0,0,1,150,99.77Z"/><path class="cls-7" d="M123,105.44a.54.54,0,0,1-.54-.54v-13a.54.54,0,1,1,1.08,0v13A.54.54,0,0,1,123,105.44Z"/><path class="cls-7" d="M170,106.79a.54.54,0,0,1-.54-.54v-13a.54.54,0,0,1,1.08,0v13A.54.54,0,0,1,170,106.79Z"/><path class="cls-7" d="M168.93,147.3a.54.54,0,0,1-.54-.54V131.1a.54.54,0,1,1,1.08,0v15.66A.54.54,0,0,1,168.93,147.3Z"/><path class="cls-7" d="M158.13,161.07a.54.54,0,0,1-.54-.54V137.31a.54.54,0,0,1,1.08,0v23.22A.54.54,0,0,1,158.13,161.07Z"/><path class="cls-7" d="M160.29,121.37a.54.54,0,0,1-.54-.54V89a.54.54,0,1,1,1.08,0v31.86A.54.54,0,0,1,160.29,121.37Z"/><circle class="cls-5" cx="210.4" cy="182.71" r="11.63"/><rect class="cls-5" x="211.79" y="191.84" width="3.53" height="6.33"/><rect class="cls-5" x="204.73" y="191.84" width="3.53" height="6.33"/><ellipse class="cls-5" cx="212.38" cy="198.24" rx="2.94" ry="1.1"/><ellipse class="cls-5" cx="205.32" cy="198.1" rx="2.94" ry="1.1"/><path class="cls-7" d="M206.75,168.09c1-4.18,5.62-6.65,10.24-5.5s7.52,5.47,6.48,9.65-4.48,4.2-9.1,3S205.71,172.27,206.75,168.09Z"/><ellipse class="cls-5" cx="197.3" cy="177.31" rx="1.83" ry="5.82" transform="translate(-47.45 279.6) rotate(-64.63)"/><circle class="cls-3" cx="208.67" cy="180.26" r="3.88"/><circle class="cls-4" cx="207.07" cy="178.87" r="1.29"/><circle class="cls-3" cx="208.63" cy="188.35" r="1.62"/><path class="cls-4" d="M243.61,199.42H179.88a.27.27,0,0,1-.27-.27.28.28,0,0,1,.27-.27h63.73a.28.28,0,0,1,.27.27A.27.27,0,0,1,243.61,199.42Z"/><text class="cls-8" transform="translate(0 234.02)">Robamos los datos, humano!</text></g></g></svg>